<?xml version="1.0" encoding="UTF-8"?>
<svg width="1151px" height="688px" viewBox="0 0 1151 688" version="1.1" xmlns="http://www.w3.org/2000/svg" xmlns:xlink="http://www.w3.org/1999/xlink">
    <!-- Generator: Sketch 58 (84663) - https://sketch.com -->
    <title>Group 8</title>
    <desc>Created with Sketch.</desc>
    <g id="Page-1" stroke="none" stroke-width="1" fill="none" fill-rule="evenodd">
        <g id="Dangote-Home-page-wireframe-1-Copy-5" transform="translate(0.000000, -5213.000000)">
            <g id="Group-8" transform="translate(-35.004306, 5213.000000)">
                <rect id="Rectangle-Copy-5" fill="#100D5C" x="29.0043064" y="0" width="1157" height="688"></rect>
                <path d="M645.292756,38 C659.557857,56.4339703 672.822958,74.8822527 689.207774,96.0498319 C667.652575,105.238193 649.993067,112.766352 633.221547,119.922396 C666.535429,157.649062 697.657984,192.914049 735.082392,235.320768 C740.395999,213.537768 752.38384,190.166128 750.278448,168.154135 C744.263044,105.281129 777.018352,74.0092153 837.530454,90.6112382 C929.251045,115.814827 990.908938,268.682246 952.009325,355.528001 C939.391298,383.694192 952.310095,424.483644 957.308609,458.947154 C961.361846,486.74123 971.072427,513.690894 978.27659,541.012671 C973.106206,545.950342 967.935823,550.888012 962.751118,555.811371 C904.902981,502.212598 847.069166,448.599514 794.620571,400.024285 C777.490991,406.264355 755.563411,414.293437 734.223048,422.079214 C717.823911,488.544554 700.321949,559.403705 680.184667,640.91105 C724.311954,655.437821 767.322094,675.059694 812.40898,683.489514 C968.236593,712.571679 1106.56224,777.162135 1228.78953,877.217948 C1241.63671,887.737333 1253.46701,899.616367 1264.98221,911.624209 C1270.82575,917.721159 1274.89331,925.506935 1278.25907,940.677749 C855.003771,731.950247 432.994522,734.726792 11.099853,945 C7.40467611,936.512931 3.69517686,928.040175 -3.41060513e-13,919.58173 C64.4364368,873.425244 124.891249,819.697663 194.412134,783.201837 C267.298782,744.959936 347.704684,719.341297 426.993441,695.339924 C507.700113,670.909188 522.996427,650.22822 496.671872,564.942483 C438.322452,630.205608 376.922362,603.069888 308.891005,577.293816 C484.025201,468.936992 499.880088,451.361747 514.574861,344.35026 C493.463657,371.185426 478.425146,408.28236 460.994797,409.441639 C360.752383,416.125385 312.342701,517.268916 209.321743,541.871396 C222.89937,504.330788 236.62022,476.980386 242.277565,448.041343 C249.238247,412.46149 268.645087,382.992899 236.577253,338.482303 C194.569681,280.189166 298.392692,102.175406 370.878313,87.7201963 C418.944257,78.1454089 448.79212,109.860998 437.634977,158.636596 C424.4727,216.113944 442.20382,235.735818 515.749297,236.751976 C503.059659,153.512868 515.276658,78.4459628 601.325583,38 L645.292756,38 Z" id="Fill-1" fill="#040226" opacity="0.105073475"></path>
            </g>
        </g>
    </g>
</svg>